<svg width="110" height="114" viewBox="0 0 110 114" fill="none" xmlns="http://www.w3.org/2000/svg">
<g clip-path="url(#clip0)">
<path d="M70.6443 32.9431C69.5207 31.7583 65.3431 31.6427 62.7213 32.4229C62.0298 38.1157 61.3096 43.8085 60.6181 49.5013L59.9555 54.7317V54.8473C59.1776 60.7423 58.6013 66.0017 58.3708 69.6138C58.4285 69.6716 58.5149 69.7005 58.5725 69.7583C59.4945 67.88 60.7333 64.5857 60.8774 64.2389C64.4211 55.1652 67.9073 46.0625 71.5086 36.9887C72.1713 35.3416 71.7391 34.099 70.6443 32.9431Z" fill="#FAFBFC"/>
<path d="M51.9171 21.4129C52.6373 26.7589 53.3864 32.1627 54.1355 37.3931C54.6829 41.2943 55.2591 45.2532 55.8065 49.241C56.3828 53.46 56.9302 57.6791 57.4488 61.8981C57.8809 57.9391 58.3419 54.587 58.3419 54.5292C59.2062 47.4494 60.0994 40.3696 60.9637 33.2897C61.2806 30.8334 61.5687 28.3772 61.8856 25.9209C62.2314 23.0022 62.6059 20.1125 62.9228 17.1939C63.0669 15.9224 63.2686 14.5642 62.4331 13.4083C61.3959 11.9924 59.1774 11.2988 56.9302 11.2988C54.5101 11.2988 52.0611 12.0791 50.9375 13.6106C51.0527 14.5931 51.1968 15.6045 51.312 16.587C51.5137 18.1764 51.7154 19.8235 51.9171 21.4129Z" fill="#FAFBFC"/>
<path d="M40.0183 52.391C41.286 52.7377 42.3232 53.0556 43.3604 53.4891C45.0314 54.1537 46.4143 54.7317 47.6532 55.3096C47.9413 55.4541 48.2294 55.5986 48.4887 55.7142C48.7768 55.8587 49.0649 56.0031 49.3242 56.1765C50.88 57.0723 52.0325 58.0838 53.012 59.5575L53.0408 59.5864C53.934 60.9446 55.2881 63.6898 56.2388 65.8571C56.0948 64.4701 55.9795 63.4298 55.9219 63.0541C55.5186 59.7598 55.1152 56.4366 54.6831 53.1423C53.2713 42.6237 51.6867 32.1339 50.3038 21.6153C50.1309 20.2282 49.9581 18.8412 49.7852 17.4541C49.6988 16.7316 49.6123 15.9803 49.5259 15.2579C49.4395 14.5932 49.353 13.8997 49.2666 13.2351C48.8056 9.6229 48.287 6.03963 47.538 2.48526C47.1346 0.549139 46.8753 0.31796 44.8874 0.173473C43.9654 0.115678 43.0723 0.0289861 42.1503 -0.0288086C42.0639 -0.0288086 42.0063 -0.0288086 41.9198 -0.0288086C38.9523 -0.0288086 35.8119 2.94762 35.1205 5.60617C34.2561 8.90047 34.6307 12.2815 35.2357 15.4891C36.7627 23.6959 38.7506 43.086 40.0183 52.391Z" fill="#FAFBFC"/>
<path d="M60.3588 76.2313C60.1571 75.3355 59.8114 74.4974 59.4944 73.6305C59.2928 73.0526 58.9758 72.5035 58.6013 72.0412C58.5149 71.9256 58.3996 71.81 58.2844 71.6944C58.0827 71.4921 57.881 71.3187 57.6793 71.1454C57.6217 71.0876 57.5641 71.0587 57.5065 71.0009C57.3624 70.8853 57.2184 70.7986 57.0743 70.7119C56.9879 70.6541 56.8726 70.5963 56.7862 70.5096C56.7574 70.4807 56.7286 70.4807 56.6998 70.4518C56.5557 70.3362 56.4405 70.2206 56.3252 70.1051C55.9219 69.6138 55.7778 69.1225 55.749 68.9781C55.4033 67.7355 52.9832 62.4473 51.6867 60.5111C51.0817 59.6153 50.3902 58.8929 49.5259 58.2571C49.2378 58.0549 48.9496 57.8815 48.6327 57.6792C48.3734 57.5058 48.0853 57.3613 47.7684 57.1879C46.4431 56.4944 44.8297 55.8298 42.7265 54.9917C41.9486 54.6739 41.1419 54.4138 40.2488 54.1537C39.9606 54.067 39.7013 54.0092 39.3844 53.9225C39.1251 53.8647 38.837 53.7781 38.5201 53.7203C37.3965 53.4313 36.0712 53.1423 34.4001 52.7666C33.4206 52.5644 32.1529 52.2754 30.5107 52.2754C30.1361 52.2754 29.7616 52.2754 29.387 52.3332C28.8973 52.3621 28.4939 52.391 28.177 52.4777C23.4808 53.5758 19.1016 55.5119 14.6359 57.2746C12.7343 58.026 12.0429 59.0952 12.2446 61.1758C12.5615 64.21 14.0308 66.6085 16.4798 68.4001C17.3441 69.0358 18.266 69.3248 19.2744 69.3248C19.5049 69.3248 19.7642 69.2959 20.0235 69.267C21.7522 69.0358 23.3368 68.3423 24.9502 67.7644C26.0738 67.3598 27.1686 67.0997 28.321 67.0997C28.9549 67.0997 29.6175 67.1864 30.2802 67.3598C32.4986 67.9666 34.7459 68.4868 37.0219 68.8336C38.5201 69.0647 39.7878 69.5271 40.825 70.394C41.1419 70.6541 41.43 70.972 42.352 72.3301C43.2163 73.6016 44.2823 75.2488 44.628 75.8845C45.8669 78.1963 47.3074 85.3628 43.1875 91.4891C39.903 96.3438 34.9764 97.8176 33.3053 98.2222C32.3834 98.4533 31.1157 98.7712 29.5311 98.7712C28.8108 98.7712 28.0041 98.7134 27.1686 98.5111C23.5672 97.7598 21.3488 95.5058 20.0235 94.1187C18.3237 92.3849 15.8171 89.8419 15.4138 86.172C14.9816 82.2708 16.7391 75.48 16.5662 73.2549C16.5662 73.1393 16.5374 73.0237 16.5374 73.0237C16.4798 72.4457 16.2493 71.2032 15.3273 70.1051C14.5782 69.1803 13.4546 68.5735 12.0717 68.2556C10.7176 67.9666 9.36347 67.8222 8.00936 67.8222C7.66363 67.8222 7.28909 67.8222 6.94336 67.8511C5.9926 67.9089 4.6673 68.2845 3.48605 69.3248C2.70816 70.0184 2.24718 70.7986 1.69978 72.1568C1.15237 73.5727 0.777827 74.9887 -0.0288782 80.8838C-0.259365 82.6176 1.00831 93.0784 2.85221 98.3089C3.54367 100.245 8.55677 105.909 11.7836 107.989C14.8664 109.983 20.5133 113.624 28.6668 113.942C29.0701 113.971 29.4447 113.971 29.848 113.971C37.8286 113.971 45.0602 110.735 49.5547 106.631C51.7155 104.666 54.7983 101.112 57.1608 96.4016C57.4777 95.7659 57.7082 95.2457 57.881 94.8701C58.342 94.8701 58.7165 94.8701 58.9758 94.899C59.5521 94.9279 59.9842 94.9568 60.3011 94.9568C60.7909 94.9568 61.079 94.899 61.3095 94.6678C61.4824 94.4944 61.5688 94.2632 61.5976 94.2632C61.7129 93.9454 61.6553 93.6564 61.5976 93.483C61.5112 93.1073 61.3095 92.9051 61.2519 92.7606C60.7333 91.8358 62.606 90.1598 62.145 89.4952C62.0298 89.3218 61.7417 89.2351 61.1367 89.0617C60.9062 88.975 60.7045 88.9461 60.5604 88.9172C60.6469 88.9172 60.7333 88.9172 60.8197 88.9172C61.2519 88.9172 61.5976 88.8594 61.8281 88.7727C62.1739 88.686 62.2603 88.5993 62.3467 88.4838C62.462 88.2815 62.3467 88.137 62.3179 87.7035C62.3179 87.5301 62.2603 87.0967 62.4331 86.721C62.5484 86.4609 62.7789 86.2298 63.0958 86.0275C63.9313 85.4784 64.1618 84.6404 63.4991 83.8024C61.8281 81.6062 60.9926 78.9765 60.3588 76.2313Z" fill="#FAFBFC"/>
<path d="M57.5645 70.0473C57.5352 70.0178 57.5352 70.0473 57.5645 70.0473C57.5352 70.0473 57.5645 70.0473 57.5645 70.0473Z" fill="#107239"/>
<path d="M109.193 111.804L84.6176 91.4309C83.1482 90.2172 83.0906 87.9921 84.4447 86.6918L109.625 62.4758C110.432 61.6956 109.885 60.3374 108.761 60.3374H94.8166L67.4175 86.6918C66.0634 87.9921 66.121 90.2172 67.5904 91.4309L94.8166 114H108.387C109.568 114 110.086 112.526 109.193 111.804Z" fill="#E4CB10"/>
</g>
<defs>
<clipPath id="clip0">
<rect width="110" height="114" fill="white"/>
</clipPath>
</defs>
</svg>
