<svg width="63" height="64" viewBox="0 0 63 64" fill="none" xmlns="http://www.w3.org/2000/svg">
<g clip-path="url(#clip0)">
<path d="M39.8753 18.4943C39.241 17.8291 36.883 17.7643 35.4031 18.2023C35.0128 21.3982 34.6063 24.5942 34.216 27.7901L33.8419 30.7265V30.7914C33.4029 34.1009 33.0776 37.0535 32.9475 39.0814C32.98 39.1138 33.0288 39.13 33.0613 39.1625C33.5817 38.108 34.281 36.2586 34.3623 36.0639C36.3626 30.9698 38.3303 25.8596 40.3631 20.7655C40.7372 19.8408 40.4932 19.1432 39.8753 18.4943Z" fill="#289672"/>
<path d="M29.3046 12.0213C29.7112 15.0226 30.134 18.0563 30.5568 20.9926C30.8658 23.1828 31.1911 25.4053 31.5 27.6441C31.8253 30.0127 32.1343 32.3812 32.427 34.7498C32.6709 32.5273 32.9311 30.6454 32.9311 30.6129C33.419 26.6383 33.9231 22.6636 34.411 18.689C34.5899 17.31 34.7525 15.9311 34.9314 14.5521C35.1265 12.9136 35.3379 11.2913 35.5168 9.65272C35.5981 8.93891 35.712 8.17642 35.2404 7.5275C34.6549 6.73257 33.4027 6.34322 32.1343 6.34322C30.7682 6.34322 29.3859 6.78124 28.7517 7.64106C28.8168 8.19265 28.8981 8.76045 28.9631 9.31204C29.077 10.2043 29.1908 11.129 29.3046 12.0213Z" fill="#289672"/>
<path d="M22.5883 29.4124C23.3038 29.6071 23.8893 29.7856 24.4747 30.0289C25.4179 30.402 26.1985 30.7265 26.8978 31.0509C27.0604 31.1321 27.223 31.2132 27.3694 31.2781C27.532 31.3592 27.6947 31.4403 27.841 31.5376C28.7192 32.0406 29.3697 32.6084 29.9226 33.4357L29.9389 33.452C30.443 34.2144 31.2073 35.7556 31.744 36.9724C31.6627 36.1937 31.5976 35.6096 31.5651 35.3987C31.3374 33.5493 31.1097 31.6836 30.8658 29.8342C30.069 23.929 29.1745 18.04 28.3939 12.1349C28.2964 11.3561 28.1988 10.5774 28.1012 9.79873C28.0524 9.39315 28.0036 8.97135 27.9548 8.56577C27.9061 8.19264 27.8573 7.80329 27.8085 7.43016C27.5483 5.40228 27.2556 3.39062 26.8328 1.39518C26.6051 0.308234 26.4587 0.178449 25.3366 0.0973338C24.8162 0.0648876 24.3121 0.0162184 23.7917 -0.0162277C23.7429 -0.0162277 23.7104 -0.0162277 23.6616 -0.0162277C21.9866 -0.0162277 20.214 1.65475 19.8237 3.14727C19.3358 4.9967 19.5472 6.8948 19.8887 8.69556C20.7506 13.3029 21.8727 24.1886 22.5883 29.4124Z" fill="#289672"/>
<path d="M34.0696 42.7964C33.9558 42.2935 33.7606 41.8231 33.5817 41.3364C33.4679 41.0119 33.289 40.7037 33.0776 40.4441C33.0288 40.3792 32.9638 40.3143 32.8987 40.2494C32.7849 40.1359 32.671 40.0385 32.5572 39.9412C32.5247 39.9087 32.4922 39.8925 32.4596 39.8601C32.3783 39.7952 32.297 39.7465 32.2157 39.6978C32.1669 39.6654 32.1019 39.6329 32.0531 39.5843C32.0368 39.5681 32.0205 39.5681 32.0043 39.5518C31.923 39.4869 31.8579 39.422 31.7929 39.3572C31.5652 39.0814 31.4839 38.8056 31.4676 38.7245C31.2725 38.0269 29.9064 35.058 29.1746 33.9711C28.8331 33.4682 28.4428 33.0626 27.955 32.7057C27.7923 32.5921 27.6297 32.4948 27.4508 32.3812C27.3045 32.2839 27.1418 32.2028 26.963 32.1054C26.2149 31.7161 25.3042 31.343 24.1171 30.8725C23.678 30.694 23.2226 30.548 22.7185 30.402C22.5559 30.3533 22.4095 30.3209 22.2306 30.2722C22.0843 30.2398 21.9216 30.1911 21.7428 30.1587C21.1085 29.9964 20.3605 29.8342 19.4172 29.6233C18.8643 29.5098 18.1488 29.3475 17.2218 29.3475C17.0104 29.3475 16.799 29.3475 16.5876 29.38C16.3111 29.3962 16.0835 29.4124 15.9046 29.4611C13.2538 30.0776 10.7819 31.1645 8.26129 32.1541C7.18797 32.5759 6.79768 33.1762 6.91151 34.3442C7.0904 36.0476 7.91978 37.3942 9.30208 38.4C9.78995 38.7569 10.3103 38.9191 10.8795 38.9191C11.0096 38.9191 11.156 38.9029 11.3023 38.8867C12.2781 38.7569 13.1725 38.3675 14.0832 38.0431C14.7174 37.816 15.3354 37.67 15.9859 37.67C16.3437 37.67 16.7177 37.7186 17.0917 37.816C18.3439 38.1566 19.6124 38.4487 20.8971 38.6433C21.7428 38.7731 22.4583 39.0327 23.0437 39.5194C23.2226 39.6654 23.3853 39.8438 23.9056 40.6063C24.3935 41.3201 24.9952 42.2449 25.1904 42.6018C25.8896 43.8996 26.7028 47.9229 24.3773 51.3622C22.5233 54.0877 19.7425 54.9151 18.7993 55.1422C18.2789 55.272 17.5633 55.4504 16.6689 55.4504C16.2624 55.4504 15.807 55.418 15.3354 55.3044C13.3026 54.8826 12.0504 53.6172 11.3023 52.8385C10.3429 51.8651 8.92804 50.4375 8.70037 48.3772C8.45644 46.1871 9.44844 42.3746 9.35086 41.1255C9.35086 41.0606 9.3346 40.9957 9.3346 40.9957C9.30208 40.6712 9.17198 39.9736 8.65158 39.3572C8.22876 38.838 7.59453 38.4973 6.81394 38.3189C6.04961 38.1566 5.28528 38.0755 4.52095 38.0755C4.3258 38.0755 4.11439 38.0755 3.91925 38.0918C3.38259 38.1242 2.63452 38.3351 1.96777 38.9191C1.52868 39.3085 1.26849 39.7465 0.959503 40.509C0.650518 41.3039 0.439108 42.0989 -0.0162371 45.4084C-0.146336 46.3817 0.569207 52.2545 1.61 55.1909C2.00029 56.2778 4.82994 59.4575 6.65132 60.6256C8.39139 61.745 11.5788 63.7891 16.181 63.9675C16.4087 63.9838 16.6201 63.9838 16.8478 63.9838C21.3525 63.9838 25.4343 62.1668 27.9712 59.8631C29.1909 58.7599 30.931 56.7645 32.2645 54.1201C32.4434 53.7632 32.5735 53.4712 32.671 53.2603C32.9312 53.2603 33.1426 53.2603 33.289 53.2765C33.6143 53.2928 33.8582 53.309 34.0371 53.309C34.3135 53.309 34.4762 53.2765 34.6063 53.1468C34.7038 53.0494 34.7526 52.9196 34.7689 52.9196C34.8339 52.7412 34.8014 52.579 34.7689 52.4816C34.7201 52.2707 34.6063 52.1572 34.5737 52.076C34.281 51.5569 35.3381 50.616 35.0779 50.2428C35.0128 50.1455 34.8502 50.0968 34.5087 49.9995C34.3786 49.9508 34.2647 49.9346 34.1834 49.9184C34.2322 49.9184 34.281 49.9184 34.3298 49.9184C34.5737 49.9184 34.7689 49.8859 34.899 49.8373C35.0941 49.7886 35.1429 49.7399 35.1917 49.675C35.2567 49.5615 35.1917 49.4804 35.1754 49.237C35.1754 49.1397 35.1429 48.8963 35.2405 48.6854C35.3055 48.5394 35.4356 48.4096 35.6145 48.2961C36.0861 47.9878 36.2162 47.5174 35.8422 47.0469C34.899 45.8139 34.4274 44.3376 34.0696 42.7964Z" fill="#289672"/>
<path d="M32.4945 39.3261C32.4751 39.3068 32.4751 39.3261 32.4945 39.3261C32.4751 39.3261 32.4945 39.3261 32.4945 39.3261Z" fill="#107239"/>
<path d="M61.6341 62.767L47.7624 51.3298C46.933 50.6484 46.9005 49.3992 47.6648 48.6692L61.8781 35.0743C62.3334 34.6362 62.0244 33.8738 61.3902 33.8738H53.5192L38.0538 48.6692C37.2894 49.3992 37.322 50.6484 38.1513 51.3298L53.5192 64H61.1788C61.8455 64 62.1383 63.1726 61.6341 62.767Z" fill="#E4CB10"/>
</g>
<defs>
<clipPath id="clip0">
<rect width="62.0896" height="64" fill="white"/>
</clipPath>
</defs>
</svg>
